<?xml version="1.0" standalone="no"?>
<!DOCTYPE svg PUBLIC "-//W3C//DTD SVG 20010904//EN"
 "http://www.w3.org/TR/2001/REC-SVG-20010904/DTD/svg10.dtd">
<svg version="1.0" xmlns="http://www.w3.org/2000/svg"
 width="512.000000pt" height="512.000000pt" viewBox="0 0 512.000000 512.000000"
 preserveAspectRatio="xMidYMid meet">
<metadata>
Created by potrace 1.14, written by Peter Selinger 2001-2017
</metadata>
<g transform="translate(0.000000,512.000000) scale(0.100000,-0.100000)"
fill="#000000" stroke="none">
<path d="M977 5106 c-105 -29 -178 -109 -217 -237 -68 -225 -75 -470 -19 -679
26 -97 33 -116 87 -232 l44 -97 -37 -91 c-157 -388 -133 -815 62 -1119 48 -76
74 -92 122 -75 14 5 32 22 41 37 14 26 13 30 -13 75 -60 102 -116 231 -138
317 -30 116 -32 345 -5 470 50 231 137 408 293 596 348 422 969 663 1590 619
573 -40 1061 -272 1382 -655 144 -172 240 -355 290 -552 101 -402 3 -787 -264
-1034 -85 -78 -127 -109 -230 -167 -311 -177 -800 -263 -1317 -233 -568 33
-972 144 -1293 355 -55 36 -110 66 -123 66 -31 0 -72 -43 -72 -76 0 -26 44
-79 84 -101 17 -9 18 -15 8 -56 -7 -25 -12 -61 -12 -80 0 -24 -14 -55 -46
-103 -26 -38 -60 -98 -76 -134 -18 -41 -50 -87 -87 -125 -317 -328 -721 -935
-721 -1083 0 -102 42 -169 138 -220 33 -18 65 -39 73 -48 29 -35 92 -57 174
-59 44 -2 123 -12 175 -23 52 -11 146 -26 208 -32 l112 -13 0 -28 c0 -45 37
-132 75 -177 21 -24 63 -54 101 -73 54 -27 76 -32 132 -31 37 0 87 7 111 16
69 25 240 132 338 211 l90 72 94 7 c52 3 121 9 155 12 l61 6 7 -50 c28 -210
250 -338 440 -253 61 27 86 54 86 95 0 25 -7 40 -26 55 -33 26 -45 26 -92 2
-64 -32 -111 -35 -162 -9 -60 31 -90 77 -90 140 0 61 9 78 79 153 32 33 66 74
76 92 16 27 28 34 74 43 73 14 197 55 264 85 41 19 53 22 55 11 5 -24 -28
-138 -64 -217 -40 -91 -42 -112 -9 -144 52 -53 97 -28 148 82 45 98 76 215 84
319 l6 81 55 44 c157 125 296 347 346 551 l22 92 130 60 c262 123 512 270 758
445 169 121 209 181 210 316 0 69 -4 88 -29 139 -32 63 -84 114 -152 147 l-43
21 22 41 c71 140 102 298 102 512 -1 173 -10 232 -60 415 l-18 66 43 63 c49
71 109 196 139 286 44 130 57 223 57 395 -1 313 -56 440 -218 502 -78 30 -347
37 -484 13 -174 -31 -378 -118 -507 -215 l-52 -40 -79 31 c-410 157 -908 188
-1351 82 l-111 -26 -69 58 c-163 138 -344 229 -554 276 -114 25 -338 34 -403
15z m260 -147 c181 -20 359 -86 509 -190 41 -29 77 -56 80 -61 3 -5 -21 -20
-53 -34 -32 -14 -97 -45 -146 -70 l-88 -45 -72 59 c-39 32 -93 73 -119 91 -69
46 -231 125 -323 157 -44 15 -82 29 -84 31 -3 2 7 15 21 29 43 43 111 52 275
33z m3298 -188 c35 -14 75 -49 75 -66 0 -7 -27 -18 -62 -24 -155 -30 -339
-106 -489 -202 -42 -27 -78 -49 -81 -49 -3 0 -41 24 -85 54 -44 29 -103 66
-132 81 -28 16 -50 33 -48 38 6 18 179 105 264 133 141 46 196 53 368 50 93
-2 172 -8 190 -15z m-3578 -45 c107 -36 231 -97 314 -154 88 -60 136 -99 129
-104 -157 -119 -288 -246 -377 -366 l-61 -83 -31 81 c-17 44 -38 106 -46 138
-17 63 -35 257 -29 312 8 70 26 200 28 200 2 0 34 -11 73 -24z m3699 -233 c8
-56 -1 -217 -16 -293 -25 -120 -75 -254 -127 -338 l-20 -32 -46 78 c-63 109
-157 231 -255 331 l-83 86 28 22 c83 67 391 187 490 192 19 1 23 -6 29 -46z
m-169 -2013 c7 0 30 -16 52 -35 66 -60 76 -156 22 -219 -44 -52 -305 -229
-521 -353 -98 -56 -363 -193 -375 -193 -3 0 -5 11 -5 24 0 20 6 25 38 30 64
12 138 70 169 135 23 46 28 69 28 133 0 77 0 78 30 88 52 18 207 111 286 171
72 55 219 204 219 223 0 4 10 6 23 2 12 -3 28 -6 34 -6z m-2946 -446 c58 -29
97 -112 80 -170 -5 -16 -27 -64 -50 -107 -80 -152 -37 -227 129 -227 108 0
177 -71 168 -175 -9 -105 -70 -148 -208 -147 -234 1 -415 146 -452 362 -11 61
-10 83 4 153 20 95 84 229 134 281 54 56 125 67 195 30z m396 -229 c420 -46
629 -92 818 -178 112 -51 159 -53 262 -8 39 17 98 38 130 46 75 20 252 45 316
45 l50 0 -7 -82 c-22 -252 -109 -442 -281 -607 -133 -128 -279 -209 -463 -258
-83 -22 -119 -26 -252 -27 -95 0 -178 4 -215 12 -211 47 -389 133 -516 251
l-54 49 30 7 c148 32 252 141 271 282 5 39 1 69 -16 124 -18 61 -30 80 -78
128 -60 59 -127 91 -190 91 -19 0 -32 4 -30 8 21 54 66 132 75 132 6 0 73 -7
150 -15z m-476 -721 c24 -8 55 -29 68 -46 23 -28 23 -32 8 -43 -10 -7 -74 -29
-145 -49 -353 -102 -426 -141 -602 -321 -41 -42 -85 -81 -98 -86 -31 -12 -80
13 -88 46 -11 42 14 80 114 177 110 106 210 177 315 221 63 27 344 114 373
116 6 1 30 -6 55 -15z m589 -425 c36 -12 68 -25 72 -29 13 -10 -181 -209 -276
-282 -50 -39 -133 -95 -186 -126 -145 -86 -224 -83 -294 11 -16 21 -21 43 -21
87 0 70 19 100 91 147 182 117 224 147 302 219 l87 81 80 -42 c44 -24 109 -53
145 -66z"/>
<path d="M2204 3749 c-22 -24 -38 -158 -23 -197 21 -54 71 -67 115 -29 25 22
28 31 32 111 4 80 3 89 -18 111 -30 31 -79 33 -106 4z"/>
<path d="M3651 3664 c-16 -20 -21 -43 -23 -88 -2 -95 1 -109 28 -133 32 -29
56 -29 91 1 26 23 28 30 31 114 4 83 2 91 -19 111 -33 30 -82 28 -108 -5z"/>
<path d="M2735 3595 c-48 -47 -27 -105 59 -164 126 -87 304 -75 409 27 53 52
49 106 -12 132 -27 11 -34 10 -63 -9 -118 -76 -189 -79 -263 -11 -61 56 -94
62 -130 25z"/>
<path d="M1700 3463 c-150 -11 -173 -15 -196 -38 -30 -30 -31 -69 -1 -98 21
-21 28 -22 256 -21 231 1 234 1 253 24 35 44 19 102 -34 118 -36 11 -207 21
-278 15z"/>
<path d="M3911 3314 c-24 -30 -26 -43 -10 -77 16 -35 49 -47 127 -47 37 0 114
-7 172 -16 205 -29 188 -29 215 -4 50 47 22 114 -55 131 -119 27 -215 39 -317
39 -109 0 -112 -1 -132 -26z"/>
<path d="M1945 3181 c-127 -38 -335 -138 -359 -173 -9 -12 -16 -33 -16 -46 0
-28 42 -72 69 -72 10 0 64 22 118 50 55 27 142 63 194 80 137 45 170 91 110
151 -34 33 -36 34 -116 10z"/>
<path d="M3831 3064 c-43 -54 -19 -100 67 -134 59 -22 192 -96 266 -147 59
-41 97 -43 125 -7 29 36 26 70 -6 103 -38 37 -201 137 -291 178 -91 41 -133
43 -161 7z"/>
</g>
</svg>
